<?xml version="1.0" standalone="no"?>
<!DOCTYPE svg PUBLIC "-//W3C//DTD SVG 20010904//EN"
 "http://www.w3.org/TR/2001/REC-SVG-20010904/DTD/svg10.dtd">
<svg version="1.0" xmlns="http://www.w3.org/2000/svg"
 width="16.000000pt" height="16.000000pt" viewBox="0 0 16.000000 16.000000"
 preserveAspectRatio="xMidYMid meet">
<metadata>
Created by potrace 1.11, written by Peter Selinger 2001-2013
</metadata>
<g transform="translate(0.000000,16.000000) scale(0.008889,-0.008889)"
fill="#000000" stroke="none">
<path d="M860 1268 c-12 -40 -37 -123 -56 -185 -18 -61 -34 -118 -34 -127 0
-24 40 -45 100 -51 139 -13 166 -8 158 31 -3 16 -16 20 -95 24 -50 3 -94 8
-97 11 -3 3 3 31 13 62 38 110 82 279 77 293 -3 8 -14 14 -25 14 -16 0 -24
-14 -41 -72z"/>
<path d="M380 1268 c-86 -15 -163 -89 -164 -157 0 -65 39 -94 142 -105 111
-12 167 -55 146 -113 -19 -55 -118 -95 -195 -78 -17 4 -47 23 -66 41 -28 28
-37 32 -53 24 -25 -13 -26 -51 -2 -80 26 -32 116 -59 184 -55 112 7 196 68
205 149 7 59 -1 87 -34 121 -34 34 -63 45 -128 52 -104 10 -135 30 -114 76 22
48 89 70 169 55 54 -10 87 -4 87 17 0 39 -94 68 -177 53z"/>
<path d="M1435 1269 c-107 -24 -184 -102 -171 -174 11 -55 51 -79 145 -89 94
-10 137 -36 147 -91 9 -52 -75 -105 -166 -105 -36 0 -100 32 -100 50 0 5 -9
14 -20 20 -15 8 -24 6 -40 -10 -19 -19 -19 -22 -5 -50 47 -90 255 -102 349
-20 43 38 60 79 54 134 -9 78 -61 122 -156 132 -113 13 -142 31 -121 77 23 51
90 69 191 53 41 -7 48 -5 57 13 10 17 7 23 -13 36 -30 20 -112 33 -151 24z"/>
<path d="M685 1176 c-25 -18 -27 -41 -5 -61 22 -20 56 -12 65 15 12 37 -30 68
-60 46z"/>
<path d="M1025 1174 c-23 -23 -18 -53 10 -66 32 -14 57 5 53 40 -4 32 -41 47
-63 26z"/>
<path d="M633 1043 c-26 -5 -31 -28 -7 -37 38 -15 94 -3 94 20 0 8 -3 14 -7
15 -5 0 -19 2 -33 3 -14 2 -35 1 -47 -1z"/>
<path d="M1058 1043 c-21 -5 -23 -14 -6 -31 22 -22 98 -12 98 13 0 22 -45 31
-92 18z"/>
<path d="M674 887 c-31 -27 -25 -51 11 -44 18 3 25 -1 29 -17 7 -27 61 -83
100 -103 45 -23 124 -25 171 -4 38 17 115 86 115 103 0 5 14 1 30 -7 54 -28
72 13 20 43 -16 9 -30 20 -30 25 0 22 -34 1 -65 -40 -20 -27 -53 -58 -73 -71
-84 -52 -203 -1 -234 101 -13 44 -34 48 -74 14z"/>
<path d="M510 588 c0 -12 -3 -18 -6 -15 -11 11 -44 -13 -44 -32 0 -25 22 -41
46 -35 15 4 20 15 22 55 1 27 -3 49 -8 49 -6 0 -10 -10 -10 -22z m0 -48 c0
-11 -7 -20 -15 -20 -8 0 -15 9 -15 20 0 11 7 20 15 20 8 0 15 -9 15 -20z"/>
<path d="M789 604 c-6 -41 -4 -96 3 -100 13 -9 60 5 53 15 -3 5 -14 7 -26 4
-19 -5 -20 -2 -18 35 2 23 0 44 -4 48 -4 4 -8 3 -8 -2z"/>
<path d="M865 600 c-3 -5 -1 -10 4 -10 6 0 11 5 11 10 0 6 -2 10 -4 10 -3 0
-8 -4 -11 -10z"/>
<path d="M913 590 c-3 -11 -10 -20 -15 -20 -6 0 -5 -6 2 -15 7 -8 10 -24 7
-35 -3 -11 -1 -20 4 -20 8 0 14 30 10 53 0 4 7 7 17 7 14 0 14 2 3 9 -12 8
-12 12 -2 25 11 14 11 16 -4 16 -9 0 -19 -9 -22 -20z"/>
<path d="M254 585 c-8 -20 4 -35 27 -35 11 0 19 -7 19 -16 0 -13 -7 -15 -30
-10 -33 6 -42 -9 -10 -19 26 -8 62 12 58 33 -2 9 -13 21 -26 27 -30 13 -28 23
6 28 25 4 24 4 -6 6 -20 0 -35 -4 -38 -14z"/>
<path d="M340 582 c-10 -12 -11 -17 -2 -20 7 -2 12 -17 12 -33 0 -17 4 -28 9
-25 4 3 8 16 7 28 -1 13 3 26 8 30 5 3 3 12 -5 21 -13 12 -16 12 -29 -1z"/>
<path d="M690 582 c-10 -11 -11 -17 -2 -20 7 -2 12 -17 12 -33 0 -16 4 -29 8
-29 5 0 8 12 7 28 -1 15 3 30 9 34 8 5 6 12 -4 22 -13 13 -17 13 -30 -2z"/>
<path d="M1090 585 c-14 -17 -6 -31 23 -37 28 -5 15 -23 -16 -21 -22 1 -26 -2
-17 -12 14 -16 59 -12 71 6 8 12 11 11 20 -3 18 -32 56 -21 50 15 0 4 4 7 10
7 7 0 9 -10 7 -24 -3 -14 -1 -31 3 -38 7 -10 9 -9 9 3 0 9 12 21 26 27 20 10
24 17 18 35 -4 12 -11 25 -17 28 -15 10 -42 3 -39 -10 4 -18 -16 -12 -21 7 -3
12 -5 10 -7 -8 -1 -14 -2 -28 -1 -32 0 -5 -6 -8 -14 -8 -10 0 -15 10 -15 32 0
27 -13 33 -16 7 -3 -22 -5 -23 -14 -9 -5 8 -14 16 -20 16 -5 1 -15 2 -22 3
-17 1 2 18 27 24 16 4 14 5 -6 6 -15 0 -32 -6 -39 -14z m182 -57 c-15 -15 -26
-4 -18 18 5 13 9 15 18 6 9 -9 9 -15 0 -24z"/>
<path d="M1520 585 c-10 -12 -10 -18 0 -30 7 -8 10 -21 7 -30 -4 -8 -2 -17 3
-20 10 -6 14 8 10 34 -1 8 4 17 11 22 9 5 9 11 -3 23 -14 14 -18 14 -28 1z"/>
<path d="M401 580 c-19 -39 -3 -80 30 -80 16 0 19 8 19 41 0 24 -4 38 -10 34
-6 -3 -8 -17 -6 -31 3 -16 0 -24 -9 -24 -8 0 -15 14 -18 33 -2 17 -5 30 -6 27z"/>
<path d="M552 568 c-20 -20 -14 -56 9 -63 12 -4 26 -2 32 4 8 8 5 11 -12 11
l-23 0 23 20 c21 17 22 21 9 30 -19 13 -24 12 -38 -2z"/>
<path d="M617 571 c-2 -3 -4 -18 -5 -33 -2 -38 14 -44 22 -7 3 18 10 28 17 24
6 -4 8 -13 6 -19 -3 -7 -1 -19 4 -27 7 -10 9 -1 7 26 -3 34 -7 40 -26 41 -12
1 -24 -1 -25 -5z"/>
<path d="M972 568 c-20 -20 -14 -55 9 -61 23 -6 49 1 49 13 0 4 -12 5 -27 2
l-28 -5 24 20 c14 11 21 25 17 31 -9 15 -29 15 -44 0z"/>
<path d="M1307 572 c-7 -14 5 -102 14 -97 4 3 6 12 2 20 -3 11 -1 13 10 9 23
-8 47 48 26 61 -15 10 -48 14 -52 7z m41 -29 c-2 -9 -8 -18 -15 -20 -9 -3 -11
11 -4 35 1 1 6 2 12 2 6 0 9 -8 7 -17z"/>
<path d="M1391 571 c-17 -11 -21 -48 -7 -61 14 -11 46 -4 46 11 0 5 5 9 10 9
6 0 10 -7 10 -17 0 -23 9 -12 13 18 3 15 11 23 21 23 9 -1 16 4 16 11 0 7 -11
12 -25 11 -17 -1 -25 -7 -25 -18 0 -10 -4 -18 -10 -18 -5 0 -10 6 -10 14 0 17
-23 27 -39 17z m21 -43 c-15 -15 -26 -4 -18 18 5 13 9 15 18 6 9 -9 9 -15 0
-24z"/>
<path d="M862 540 c-1 -16 2 -30 8 -30 5 0 10 14 10 30 0 17 -4 30 -8 30 -4 0
-9 -13 -10 -30z"/>
<path d="M190 541 c0 -10 26 -9 36 2 4 4 -2 7 -14 7 -12 0 -22 -4 -22 -9z"/>
<path d="M1574 541 c3 -5 15 -7 26 -4 28 7 25 13 -6 13 -14 0 -23 -4 -20 -9z"/>
</g>
</svg>
